<?xml version="1.0" encoding="UTF-8"?>
<!DOCTYPE svg PUBLIC "-//W3C//DTD SVG 1.1//EN" "http://www.w3.org/Graphics/SVG/1.1/DTD/svg11.dtd">
<!-- Creator: CorelDRAW -->
<svg xmlns="http://www.w3.org/2000/svg" xml:space="preserve" width="2048px" height="2048px" style="shape-rendering:geometricPrecision; text-rendering:geometricPrecision; image-rendering:optimizeQuality; fill-rule:evenodd; clip-rule:evenodd"
viewBox="0 0 2048 2048"
 xmlns:xlink="http://www.w3.org/1999/xlink">
 <defs>
  <style type="text/css">
   <![CDATA[
    .fil0 {fill:none}
    .fil4 {fill:#543117}
    .fil1 {fill:#734828}
    .fil2 {fill:#A87246}
    .fil3 {fill:#212121;fill-rule:nonzero}
    .fil5 {fill:#BDBDBD;fill-rule:nonzero}
   ]]>
  </style>
 </defs>
 <g id="Layer_x0020_1">
  <metadata id="CorelCorpID_0Corel-Layer"/>
  <rect class="fil0" x="255.999" y="256" width="1536" height="1536"/>
  <rect class="fil0" width="2048" height="2048"/>
  <g id="_527592928">
   <path id="_527606512" class="fil1" d="M466.83 255.999l139.637 0 0 1536 -139.637 0c-38.4,0 -69.8174,-28.7988 -69.8174,-63.9993l0 -1408c0,-35.2004 31.4162,-63.9993 69.8174,-63.9993z"/>
   <path id="_527584720" class="fil2" d="M606.467 255.999l1.24488 0 976.208 0c38.4,0 69.8174,28.8 69.8174,63.9993l0 1408c0,35.1992 -31.4185,63.9993 -69.8174,63.9993l-977.238 0 -0.214961 0 0 -1536z"/>
   <path id="_527594656" class="fil3" d="M1030.77 947.913l0.0425197 -0.0106299c0.959056,-0.256299 0.284646,-0.209055 -0.303544,-0.272835l0.261024 0.283465z"/>
   <path id="_527602984" class="fil4" d="M989.277 959.012c-3.20433,-17.9575 -4.54252,-36.4252 -4.54252,-57.6154 0,-25.0418 9.06024,-49.5733 23.9256,-70.1871 14.9126,-20.6811 35.9185,-37.6028 59.5311,-47.1059 9.60237,-3.85985 23.3504,-7.18701 36.9378,-9.11103 12.9543,-1.83543 26.4591,-2.50512 36.9898,-1.29685 6.29528,0.726379 21.4854,4.00276 34.7977,7.62402 11.1,3.02008 22.0429,6.62481 28.2177,9.96969l0.114567 0c3.29292,1.78465 9.75237,6.12874 15.8717,10.5898 5.76142,4.19882 11.387,8.72363 14.2122,11.7496 25.0559,26.837 35.8075,53.0162 38.9504,80.7107 2.91142,25.6418 -1.09488,50.2926 -5.91378,77.9599 -2.16614,12.4181 -7.25552,27.5327 -13.5059,41.8158 -6.46418,14.7685 -14.4555,29.2477 -21.9213,39.3201 -2.32087,3.1311 -5.55709,7.27087 -9.29056,11.5004 87.9851,27.2173 191.321,65.0906 191.321,180.868l0 29.1095 -29.1107 0 -511.523 0 -29.1107 0 0 -29.1095c0,-57.241 27.9402,-97.2119 67.3264,-126.121 35.7177,-26.2146 80.5595,-42.3532 120.79,-54.0863l-0.0188977 -0.0614174 1.46693 -0.437008c-5.86418,-7.01812 -10.8532,-14.2618 -15.3047,-21.926 -5.44252,-9.36615 -9.98268,-19.2343 -14.3421,-30.0614 -7.52953,-18.7217 -12.6425,-36.0166 -15.8693,-54.0993z"/>
   <g>
    <ellipse id="_527596552" class="fil4" cx="500.489" cy="425.052" rx="45.8259" ry="45.8259"/>
    <path id="_527591392" class="fil5" d="M390.391 406.313c-14.5547,0 -26.3551,9.84686 -26.3551,21.9933 0,12.1465 11.8004,21.9933 26.3551,21.9933l84.9934 0c14.5547,0 26.3551,-9.84686 26.3551,-21.9933 0,-12.1465 -11.8004,-21.9933 -26.3551,-21.9933l-84.9934 0z"/>
    <ellipse id="_527581312" class="fil4" cx="500.489" cy="558.152" rx="45.8259" ry="45.8259"/>
    <path id="_527585296" class="fil5" d="M390.391 539.411c-14.5547,0 -26.3551,9.84804 -26.3551,21.9945 0,12.1453 11.8004,21.9933 26.3551,21.9933l84.9934 0c14.5547,0 26.3551,-9.84804 26.3551,-21.9933 0,-12.1465 -11.8004,-21.9945 -26.3551,-21.9945l-84.9934 0z"/>
    <ellipse id="_527599240" class="fil4" cx="500.489" cy="691.251" rx="45.8259" ry="45.8259"/>
    <path id="_527577952" class="fil5" d="M390.391 672.511c-14.5547,0 -26.3551,9.84804 -26.3551,21.9933 0,12.1465 11.8004,21.9945 26.3551,21.9945l84.9934 0c14.5547,0 26.3551,-9.84804 26.3551,-21.9945 0,-12.1453 -11.8004,-21.9933 -26.3551,-21.9933l-84.9934 0z"/>
    <ellipse id="_527588464" class="fil4" cx="500.489" cy="824.351" rx="45.8259" ry="45.8259"/>
    <path id="_527576728" class="fil5" d="M390.391 805.61c-14.5547,0 -26.3551,9.84686 -26.3551,21.9933 0,12.1465 11.8004,21.9933 26.3551,21.9933l84.9934 0c14.5547,0 26.3551,-9.84686 26.3551,-21.9933 0,-12.1465 -11.8004,-21.9933 -26.3551,-21.9933l-84.9934 0z"/>
    <ellipse id="_527602960" class="fil4" cx="500.489" cy="957.45" rx="45.8259" ry="45.8259"/>
    <path id="_527587240" class="fil5" d="M390.391 938.71c-14.5547,0 -26.3551,9.84686 -26.3551,21.9933 0,12.1465 11.8004,21.9933 26.3551,21.9933l84.9934 0c14.5547,0 26.3551,-9.84686 26.3551,-21.9933 0,-12.1465 -11.8004,-21.9933 -26.3551,-21.9933l-84.9934 0z"/>
    <ellipse id="_527590696" class="fil4" cx="500.489" cy="1090.55" rx="45.8259" ry="45.8259"/>
    <path id="_527596576" class="fil5" d="M390.391 1071.81c-14.5547,0 -26.3551,9.84804 -26.3551,21.9945 0,12.1453 11.8004,21.9933 26.3551,21.9933l84.9934 0c14.5547,0 26.3551,-9.84804 26.3551,-21.9933 0,-12.1465 -11.8004,-21.9945 -26.3551,-21.9945l-84.9934 0z"/>
    <ellipse id="_527596432" class="fil4" cx="500.489" cy="1223.65" rx="45.8259" ry="45.8259"/>
    <path id="_527595040" class="fil5" d="M390.391 1204.91c-14.5547,0 -26.3551,9.84804 -26.3551,21.9933 0,12.1465 11.8004,21.9945 26.3551,21.9945l84.9934 0c14.5547,0 26.3551,-9.84804 26.3551,-21.9945 0,-12.1453 -11.8004,-21.9933 -26.3551,-21.9933l-84.9934 0z"/>
    <ellipse id="_527589472" class="fil4" cx="500.489" cy="1356.75" rx="45.8259" ry="45.8259"/>
    <path id="_527606368" class="fil5" d="M390.391 1338.01c-14.5547,0 -26.3551,9.84686 -26.3551,21.9933 0,12.1465 11.8004,21.9933 26.3551,21.9933l84.9934 0c14.5547,0 26.3551,-9.84686 26.3551,-21.9933 0,-12.1465 -11.8004,-21.9933 -26.3551,-21.9933l-84.9934 0z"/>
    <ellipse id="_527602480" class="fil4" cx="500.489" cy="1489.85" rx="45.8259" ry="45.8259"/>
    <path id="_527594176" class="fil5" d="M390.391 1471.11c-14.5547,0 -26.3551,9.84686 -26.3551,21.9933 0,12.1465 11.8004,21.9933 26.3551,21.9933l84.9934 0c14.5547,0 26.3551,-9.84686 26.3551,-21.9933 0,-12.1465 -11.8004,-21.9933 -26.3551,-21.9933l-84.9934 0z"/>
    <ellipse id="_527580616" class="fil4" cx="500.489" cy="1622.95" rx="45.8259" ry="45.8259"/>
    <path id="_527588608" class="fil5" d="M390.391 1604.21c-14.5547,0 -26.3551,9.84686 -26.3551,21.9933 0,12.1465 11.8004,21.9933 26.3551,21.9933l84.9934 0c14.5547,0 26.3551,-9.84686 26.3551,-21.9933 0,-12.1465 -11.8004,-21.9933 -26.3551,-21.9933l-84.9934 0z"/>
   </g>
  </g>
 </g>
</svg>
